<?xml version="1.0" encoding="utf-8"?>
<svg width="32" height="32" viewBox="0 0 32 32" fill="none" xmlns="http://www.w3.org/2000/svg">
  <g>
    <rect width="32" height="32" fill="#FFFFFF" fill-rule="evenodd" />
    <path d="M13.3333 3.33333C13.3333 3.33333 13.3333 2.33333 13.3333 2.33333C13.3333 1.97607 13.1427 1.64594 12.8333 1.46731C12.5239 1.28868 12.1427 1.28868 11.8333 1.46731C11.5239 1.64594 11.3333 1.97607 11.3333 2.33333C11.3333 2.33333 11.3333 3.33333 11.3333 3.33333C11.3333 3.33333 1.66667 3.33333 1.66667 3.33333C0.746192 3.33333 0 2.58714 0 1.66667C0 0.746193 0.746192 0 1.66667 0C1.66667 0 15 0 15 0C15.9205 0 16.6667 0.746192 16.6667 1.66667C16.6667 2.58714 15.9205 3.33333 15 3.33333C15 3.33333 13.3333 3.33333 13.3333 3.33333ZM1.33333 9.66667C1.33333 9.11438 1.78105 8.66667 2.33333 8.66667C2.88562 8.66667 3.33333 9.11438 3.33333 9.66667C3.33333 10.219 2.88562 10.6667 2.33333 10.6667C1.78105 10.6667 1.33333 10.219 1.33333 9.66667C1.33333 9.66667 1.33333 9.66667 1.33333 9.66667Z" fill="#000000" transform="translate(7.667 13)" />
    <path d="M17.76 1.9049C18.0832 1.75247 18.3005 1.43919 18.3301 1.08307C18.3597 0.726944 18.1971 0.382087 17.9035 0.178399C17.6098 -0.0252888 17.2299 -0.0568631 16.9067 0.0955706C16.9067 0.0955706 6.35733 5.0609 6.35733 5.0609C4.04267 5.17957 2.596 5.5289 1.564 6.56224C0 8.12357 0 10.6382 0 15.6662C0 20.6942 0 23.2089 1.56267 24.7702C3.12533 26.3316 5.63867 26.3329 10.6667 26.3329C10.6667 26.3329 16 26.3329 16 26.3329C21.028 26.3329 23.5427 26.3329 25.104 24.7702C26.6653 23.2076 26.6667 20.6942 26.6667 15.6662C26.6667 10.6382 26.6667 8.12357 25.104 6.56224C23.5413 5.0009 21.028 4.99957 16 4.99957C16 4.99957 11.1827 4.99957 11.1827 4.99957C11.1827 4.99957 17.76 1.9049 17.76 1.9049ZM6.66667 7.99957C5.35669 7.99957 4.14623 8.69843 3.49124 9.8329C2.83625 10.9674 2.83625 12.3651 3.49124 13.4996C4.14623 14.634 5.35669 15.3329 6.66667 15.3329C6.66667 15.3329 20 15.3329 20 15.3329C21.31 15.3329 22.5204 14.634 23.1754 13.4996C23.8304 12.3651 23.8304 10.9674 23.1754 9.8329C22.5204 8.69843 21.31 7.99957 20 7.99957C20 7.99957 6.66667 7.99957 6.66667 7.99957ZM4.33333 19.6662C4.33333 18.0094 5.67648 16.6662 7.33333 16.6662C8.99019 16.6662 10.3333 18.0094 10.3333 19.6662C10.3333 21.3231 8.99019 22.6662 7.33333 22.6662C5.67648 22.6662 4.33333 21.3231 4.33333 19.6662C4.33333 19.6662 4.33333 19.6662 4.33333 19.6662ZM13.6667 19.6662C13.6667 19.114 14.1144 18.6662 14.6667 18.6662C14.6667 18.6662 21.3333 18.6662 21.3333 18.6662C21.8856 18.6662 22.3333 19.114 22.3333 19.6662C22.3333 20.2185 21.8856 20.6662 21.3333 20.6662C21.3333 20.6662 14.6667 20.6662 14.6667 20.6662C14.1144 20.6662 13.6667 20.2185 13.6667 19.6662C13.6667 19.6662 13.6667 19.6662 13.6667 19.6662Z" fill="#000000" fill-rule="evenodd" transform="translate(2.667 3)" />
  </g>
</svg>
